<svg xmlns="http://www.w3.org/2000/svg" viewBox="0 0 200 200" width="200" height="200">
  <rect x="0" y="0" width="200" height="200" style="fill: rgb(50, 50, 60);"/>
  <path style="fill: rgb(216, 216, 216);" d="M 15 15 L 15 185 L 70 185 L 70 170 L 30 170 L 30 30 L 70 30 L 70 15 L 15 15 Z"/>
  <path style="fill: rgb(216, 216, 216);" d="M 185 15 L 185 185 L 130 185 L 130 170 L 170 170 L 170 30 L 130 30 L 130 15 L 185 15 Z"/>
  <ellipse style="fill: rgb(216, 216, 216);" cx="68" cy="65" rx="20" ry="25"/>
  <ellipse style="fill: rgb(216, 216, 216);" cx="132" cy="135" rx="20" ry="25"/>
  <ellipse style="fill: rgb(50, 50, 60);" cx="68" cy="65" rx="10" ry="20"/>
  <ellipse style="fill: rgb(50, 50, 60);" cx="132" cy="135" rx="10" ry="20"/>
  <path style="fill: rgb(216, 216, 216);" d="M 62 127 L 70 120 L 70 160 L 78 160 L 78 110 L 67 110 L 57 119"/>
  <path style="fill: rgb(216, 216, 216);" d="M 123 58 L 131 51 L 131 91 L 139 91 L 139 41 L 128 41 L 118 50"/>
</svg>
